<?xml version="1.0" encoding="UTF-8" standalone="no"?> <svg width="512" height="512" viewBox="0 0 512 512" fill="none" xmlns="http://www.w3.org/2000/svg">
<path d="M77.2251 214.041H202.846L77.2251 276.852V214.041ZM292.16 412.078C292.224 412.078 292.286 412.078 292.349 412.078C293.761 412.107 295.165 411.855 296.478 411.335C297.791 410.815 298.987 410.038 299.997 409.049C301.006 408.061 301.807 406.882 302.355 405.58C302.902 404.278 303.184 402.879 303.184 401.467V387.51C303.19 381.784 305.431 376.286 309.429 372.186C313.426 368.087 318.866 365.709 324.59 365.558C327.021 358.689 327.019 351.194 324.582 344.327H186.113C183.677 351.191 183.673 358.684 186.102 365.551H260C265.822 365.558 271.403 367.873 275.52 371.99C279.637 376.107 281.952 381.688 281.959 387.51V401.469C281.973 404.209 283.04 406.838 284.939 408.812C286.838 410.787 289.423 411.956 292.16 412.078V412.078ZM163.592 336.327C163.594 338.09 164.178 339.803 165.253 341.199C166.329 342.596 167.835 343.599 169.539 344.051C167.452 353.002 167.984 362.365 171.07 371.022C167.56 374.095 165.122 378.208 164.112 382.763C163.102 387.318 163.572 392.076 165.454 396.345C165.438 396.363 165.421 396.379 165.405 396.397C164.655 397.312 164.117 398.383 163.83 399.531C163.543 400.68 163.515 401.877 163.747 403.038L166.694 417.774C168.35 426.04 172.184 433.713 177.8 440H95.2451L83.8181 291.443L228.218 219.243L226.798 256.168C208.802 260.511 192.788 270.774 181.326 285.311C169.863 299.848 163.618 317.815 163.592 336.327V336.327ZM108.437 336.85C108.581 338.866 109.483 340.754 110.962 342.132C112.441 343.51 114.387 344.278 116.408 344.28C116.6 344.28 116.793 344.273 116.987 344.259C119.103 344.108 121.073 343.122 122.462 341.518C123.852 339.915 124.547 337.825 124.396 335.709L123.734 326.45C123.571 324.343 122.581 322.385 120.98 321.005C119.378 319.626 117.296 318.936 115.187 319.087C113.079 319.237 111.116 320.216 109.727 321.81C108.338 323.403 107.636 325.482 107.775 327.591L108.437 336.85ZM128.388 391.593L126.427 364.146C126.262 362.041 125.271 360.086 123.67 358.709C122.069 357.331 119.989 356.642 117.882 356.793C115.776 356.943 113.814 357.92 112.425 359.511C111.036 361.102 110.333 363.177 110.468 365.285L112.429 392.733C112.573 394.75 113.475 396.637 114.954 398.016C116.432 399.394 118.378 400.162 120.4 400.164C120.591 400.164 120.784 400.157 120.978 400.143C122.026 400.068 123.049 399.788 123.989 399.318C124.928 398.847 125.766 398.197 126.454 397.403C127.142 396.609 127.667 395.687 127.999 394.69C128.331 393.693 128.463 392.641 128.388 391.593ZM179.588 387.51C179.59 389.09 180.218 390.605 181.335 391.722C182.452 392.839 183.967 393.467 185.547 393.469H265.955V387.51C265.953 385.931 265.326 384.417 264.209 383.3C263.093 382.182 261.579 381.554 260 381.551H185.551C183.971 381.553 182.456 382.181 181.339 383.298C180.222 384.415 179.594 385.93 179.592 387.51H179.588ZM213.322 440H297.372C304.662 439.984 311.722 437.451 317.359 432.83C322.997 428.208 326.865 421.782 328.31 414.637L329.344 409.469H317.965C316.259 414.864 312.879 419.575 308.317 422.922C303.754 426.268 298.245 428.075 292.587 428.082C292.452 428.082 292.317 428.082 292.181 428.082H292.014C286.461 427.932 281.092 426.061 276.649 422.727C272.206 419.393 268.909 414.761 267.214 409.471H181.35L182.384 414.639C183.83 421.783 187.698 428.209 193.335 432.831C198.973 437.452 206.033 439.984 213.322 440V440ZM471.393 225.73L452.293 216.521L440.16 245.673V272.49H451.928L471.393 225.73ZM386.939 291.1V176.816H365.714V290.027L366.251 291.102L386.939 291.1ZM415.702 276.91C416.367 275.581 417.388 274.464 418.652 273.683C419.915 272.902 421.371 272.488 422.857 272.488H424.163V195.429H402.939V291.1H408.606L415.702 276.91ZM331.102 387.51C331.102 385.93 330.474 384.414 329.357 383.296C328.239 382.179 326.724 381.551 325.143 381.551C323.563 381.551 322.047 382.179 320.929 383.296C319.812 384.414 319.184 385.93 319.184 387.51V393.469H325.143C326.723 393.467 328.237 392.838 329.354 391.721C330.47 390.604 331.099 389.09 331.1 387.51H331.102ZM397.265 384.163C401.205 384.163 405.055 382.995 408.331 380.806C411.606 378.618 414.159 375.507 415.667 371.867C417.174 368.228 417.569 364.223 416.8 360.359C416.032 356.495 414.135 352.946 411.349 350.161C408.564 347.375 405.015 345.478 401.151 344.71C397.287 343.941 393.282 344.336 389.643 345.843C386.003 347.351 382.893 349.904 380.704 353.179C378.515 356.455 377.347 360.306 377.347 364.245C377.353 369.526 379.454 374.588 383.188 378.322C386.922 382.056 391.984 384.157 397.265 384.163V384.163ZM347.056 288.49L354.156 302.68C354.821 304.009 355.842 305.126 357.106 305.907C358.369 306.688 359.826 307.102 361.311 307.102H413.556C415.042 307.102 416.498 306.688 417.762 305.907C419.025 305.126 420.047 304.009 420.711 302.68L427.806 288.49H460.45L443.615 440H332.9C338.513 433.712 342.345 426.039 344 417.774L346.947 403.038C347.179 401.877 347.151 400.68 346.864 399.531C346.578 398.383 346.04 397.312 345.289 396.397C345.273 396.379 345.255 396.363 345.24 396.345C347.122 392.076 347.592 387.318 346.582 382.764C345.572 378.209 343.134 374.096 339.624 371.023C342.711 362.365 343.243 353.002 341.155 344.051C342.859 343.599 344.365 342.596 345.441 341.199C346.516 339.803 347.1 338.09 347.102 336.327C347.115 319.167 341.743 302.435 331.742 288.49H347.056ZM361.347 364.245C361.347 371.349 363.453 378.294 367.4 384.201C371.347 390.108 376.957 394.712 383.52 397.431C390.083 400.149 397.306 400.861 404.273 399.475C411.241 398.089 417.641 394.668 422.665 389.645C427.688 384.621 431.109 378.221 432.495 371.253C433.881 364.286 433.169 357.063 430.451 350.5C427.732 343.937 423.128 338.327 417.221 334.38C411.314 330.433 404.369 328.327 397.265 328.327C387.742 328.338 378.613 332.126 371.879 338.859C365.146 345.593 361.358 354.722 361.347 364.245V364.245ZM349.714 195.429H328.49V272.49H349.714V195.429ZM191.51 93.061H170.286V128H191.51V93.061ZM312.49 218.2L296.878 225.728L312.49 263.235V218.2ZM234.73 54.6L224.915 39.875L198.006 55.251L203.946 73.07L234.73 54.6ZM183.854 63.391C178.725 66.6529 174.739 71.4306 172.448 77.061H188.411L183.854 63.391ZM450.785 456H41.3711C43.0308 460.676 46.0967 464.724 50.1482 467.589C54.1997 470.453 59.0382 471.994 64.0001 472H446.694C451.656 471.994 456.495 470.453 460.546 467.589C464.597 464.724 467.663 460.676 469.323 456H450.785ZM240 176H64.0001V198.041H240V176ZM217.754 144H87.3111L82.6581 160H221.758L217.754 144ZM246.041 269.877H264.653C280.886 269.897 296.552 275.849 308.702 286.614C320.853 297.379 328.649 312.214 330.623 328.327H180.071C182.046 312.214 189.842 297.379 201.992 286.614C214.142 275.849 229.808 269.897 246.041 269.877V269.877ZM273.959 299.1C273.959 300.941 274.505 302.74 275.527 304.27C276.55 305.801 278.003 306.993 279.704 307.698C281.404 308.402 283.275 308.586 285.081 308.227C286.886 307.868 288.544 306.982 289.845 305.68C291.147 304.379 292.033 302.721 292.392 300.915C292.751 299.11 292.567 297.239 291.863 295.539C291.158 293.838 289.966 292.385 288.435 291.362C286.905 290.34 285.106 289.794 283.265 289.794C280.797 289.794 278.43 290.774 276.685 292.52C274.94 294.265 273.959 296.632 273.959 299.1V299.1ZM246.041 308.406C246.041 310.247 246.587 312.046 247.609 313.576C248.632 315.107 250.085 316.299 251.786 317.004C253.486 317.708 255.357 317.892 257.163 317.533C258.968 317.174 260.626 316.288 261.927 314.986C263.229 313.685 264.115 312.027 264.474 310.221C264.833 308.416 264.649 306.545 263.945 304.845C263.24 303.144 262.048 301.691 260.517 300.668C258.987 299.646 257.188 299.1 255.347 299.1C254.125 299.1 252.914 299.341 251.785 299.808C250.656 300.276 249.63 300.962 248.766 301.826C247.902 302.69 247.216 303.717 246.749 304.846C246.281 305.975 246.041 307.186 246.041 308.408V308.406ZM218.122 299.1C218.122 300.941 218.668 302.74 219.69 304.271C220.713 305.802 222.166 306.995 223.867 307.699C225.567 308.404 227.439 308.588 229.244 308.229C231.05 307.87 232.708 306.984 234.01 305.682C235.311 304.381 236.198 302.722 236.557 300.917C236.916 299.112 236.732 297.24 236.028 295.54C235.323 293.839 234.13 292.385 232.6 291.363C231.069 290.34 229.27 289.794 227.429 289.794C226.207 289.794 224.997 290.034 223.868 290.502C222.738 290.97 221.712 291.655 220.848 292.519C219.984 293.383 219.298 294.409 218.831 295.539C218.363 296.668 218.122 297.878 218.122 299.1V299.1Z" fill="url(#paint0_linear_16_84206)"/>
<defs>
<linearGradient id="paint0_linear_16_84206" x1="81.0201" y1="498.945" x2="412.814" y2="167.151" gradientUnits="userSpaceOnUse">
<stop stop-color="#41DFD0"/>
<stop offset="1" stop-color="#EE83EF"/>
</linearGradient>
</defs>
</svg>
