<?xml version="1.0" encoding="UTF-8"?>
<!DOCTYPE svg PUBLIC "-//W3C//DTD SVG 1.1//EN" "http://www.w3.org/Graphics/SVG/1.1/DTD/svg11.dtd">
<!-- Creator: CorelDRAW -->
<svg xmlns="http://www.w3.org/2000/svg" xml:space="preserve" width="512px" height="512px" version="1.1" style="shape-rendering:geometricPrecision; text-rendering:geometricPrecision; image-rendering:optimizeQuality; fill-rule:evenodd; clip-rule:evenodd"
viewBox="0 0 512 512"
 xmlns:xlink="http://www.w3.org/1999/xlink"
 xmlns:xodm="http://www.corel.com/coreldraw/odm/2003">
 <defs>
  <style type="text/css">
   <![CDATA[
    .fil0 {fill:url(#id0)}
   ]]>
  </style>
  <linearGradient id="id0" gradientUnits="userSpaceOnUse" x1="256" y1="12" x2="256" y2="500">
   <stop offset="0" style="stop-opacity:1; stop-color:#5CC6D0"/>
   <stop offset="0.490196" style="stop-opacity:1; stop-color:#A53692"/>
   <stop offset="1" style="stop-opacity:1; stop-color:#F06277"/>
  </linearGradient>
 </defs>
 <g id="Layer_x0020_1">
  <metadata id="CorelCorpID_0Corel-Layer"/>
  <path class="fil0" d="M383 350l-339 0c-3.9,0 -7,-3.1 -7,-7 0,-3.9 3.1,-7 7,-7l339 0c3.9,0 7,3.1 7,7 0,3.9 -3.1,7 -7,7zm80 150l-410 0c-28.7,0 -53,-24.3 -53,-53l0 -428c0,-3.9 3.1,-7 7,-7l413 0c3.9,0 7,3.1 7,7l0 157 36 0c3.9,0 7,3.1 7,7l0 66 35 0c3.9,0 7,3.1 7,7l0 195c0,26.94 -21.9,48.9 -48.82,49l-0.18 0zm-36 -310l0 66 0 195c0,19.3 16.1,35 36,35 19,0 35,-16 35,-35l0 -188 -28 0 0 187c0,3.9 -3.1,7 -7,7 -3.9,0 -7,-3.1 -7,-7l0 -193.93 0 -0.07 0 -0.07 0 -65.93 -29 0zm-14 66l0 -73 0 -157 -399 0 0 421c0,21.1 17.9,39 39,39l375.04 0c-9.28,-8.9 -15.04,-21.31 -15.04,-35l0 -195zm-30.3 -108.3l-338.7 0c-3.9,0 -7,-3.1 -7,-7l0 -84.7c0,-3.9 3.1,-7 7,-7l338.7 0c3.9,0 7,3.1 7,7l0 84.7c0,3.8 -3.1,7 -7,7zm-331.7 -14l324.7 0 0 -70.7 -324.7 0 0 70.7zm77.7 329l-84.7 0c-3.9,0 -7,-3.1 -7,-7l0 -70.7c0,-3.9 3.1,-7 7,-7l84.7 0c3.9,0 7,3.1 7,7l0 70.7c0,3.8 -3.2,7 -7,7zm-77.7 -14l70.7 0 0 -56.7 -70.7 0 0 56.7zm332.1 14l-208.1 0c-3.9,0 -7,-3.1 -7,-7l0 -70.7c0,-3.9 3.1,-7 7,-7l208.1 0c3.9,0 7,3.1 7,7l0 70.7c0,3.8 -3.2,7 -7,7zm-201.1 -14l194.1 0 0 -56.7 -194.1 0 0 56.7zm201 -246.7l-339 0c-3.9,0 -7,-3.1 -7,-7 0,-3.9 3.1,-7 7,-7l339 0c3.9,0 7,3.1 7,7 0,3.9 -3.1,7 -7,7zm0 49l-339 0c-3.9,0 -7,-3.1 -7,-7 0,-3.9 3.1,-7 7,-7l339 0c3.9,0 7,3.1 7,7 0,3.9 -3.1,7 -7,7zm0 49l-339 0c-3.9,0 -7,-3.1 -7,-7 0,-3.9 3.1,-7 7,-7l339 0c3.9,0 7,3.1 7,7 0,3.9 -3.1,7 -7,7z"/>
 </g>
</svg>
