<svg version="1.1" id="Layer_1" xmlns="http://www.w3.org/2000/svg" xmlns:xlink="http://www.w3.org/1999/xlink" x="0px" y="0px" viewBox="0 0 68 68" style="enable-background:new 0 0 68 68;" xml:space="preserve">
<g>
	<g>
		<path d="M54.8087158,5.5595245v2.7600098c-0.3498535-0.0800781-0.7099609-0.1101074-1.0598145-0.1101074H18.9188232
			l31.5500488-6.2099609C52.7188721,1.5595247,54.8087158,3.2794955,54.8087158,5.5595245z" id="id_101" style="fill: rgb(91, 29, 173);"></path>
	</g>
	<g>
		<path d="M44.4051514,20.3271027H23.5955811c-0.5351563,0-0.9702148,0.4350586-0.9702148,0.9697266V32.71138
			c0,0.534668,0.4350586,0.9697266,0.9702148,0.9697266h20.8095703c0.5351563,0,0.9702148-0.4350586,0.9702148-0.9697266V21.2968292
			C45.3753662,20.7621613,44.9403076,20.3271027,44.4051514,20.3271027z M30.4876709,29.2228546
			c0,0.1303711-0.0478516,0.2470703-0.1381836,0.3374023s-0.2070313,0.1381836-0.3374023,0.1381836
			s-0.2475586-0.0473633-0.3398438-0.1362305c-0.0932617-0.0893555-0.1430664-0.2070313-0.1430664-0.3393555v-3.3408203
			l-1.3833008,3.418457c-0.0507813,0.1210938-0.1318359,0.2182617-0.2412109,0.2905273
			c-0.2197266,0.1425781-0.5043945,0.1425781-0.722168,0c-0.109375-0.0722656-0.1904297-0.1694336-0.2402344-0.2885742
			l-1.3842773-3.4204102v3.3408203c0,0.1318359-0.0498047,0.2490234-0.1435547,0.3393555
			c-0.1870117,0.1806641-0.4960938,0.1796875-0.6762695-0.0014648c-0.0908203-0.0898438-0.1386719-0.206543-0.1386719-0.3378906
			v-4.3212891c0-0.1704102,0.0605469-0.3188477,0.1801758-0.4414063c0.1206055-0.1240234,0.2685547-0.1865234,0.4404297-0.1865234
			h0.2387695c0.1289063,0,0.2475586,0.0390625,0.3525391,0.1157227c0.1010742,0.0737305,0.1767578,0.1669922,0.2260742,0.2773438
			l1.5058594,3.7553711l1.5043945-3.75c0.0512695-0.1157227,0.1269531-0.2089844,0.2280273-0.2827148
			c0.1049805-0.0766602,0.2236328-0.1157227,0.3525391-0.1157227h0.2387695c0.1708984,0,0.3193359,0.0625,0.4404297,0.1860352
			c0.1196289,0.1230469,0.1801758,0.2714844,0.1801758,0.4418945V29.2228546z M32.4276123,28.5749054
			c0.1831055,0.1621094,0.4492188,0.2446289,0.7910156,0.2446289c0.1899414,0,0.3564453-0.0180664,0.4946289-0.0532227
			c0.140625-0.0356445,0.2802734-0.0878906,0.4155273-0.1552734c0.1518555-0.0771484,0.3598633-0.0551758,0.5004883,0.0737305
			c0.0893555,0.081543,0.1362305,0.1899414,0.1362305,0.3134766c0,0.1123047-0.0454102,0.2724609-0.2626953,0.3979492
			c-0.2016602,0.1132813-0.3999023,0.1982422-0.5913086,0.2529297c-0.1982422,0.0576172-0.4438477,0.0854492-0.7509766,0.0854492
			c-0.6279297,0-1.1274414-0.184082-1.4858398-0.5473633c-0.3574219-0.362793-0.5385742-0.8745117-0.5385742-1.5205078
			c0-0.3618164,0.0673828-0.7011719,0.2001953-1.0078125c0.1367188-0.3154297,0.3491211-0.5732422,0.6323242-0.7666016
			c0.284668-0.1948242,0.637207-0.2939453,1.0473633-0.2939453c0.3842773,0,0.7231445,0.0917969,1.0073242,0.2734375
			c0.2827148,0.1806641,0.5004883,0.425293,0.6474609,0.7260742c0.1445313,0.2983398,0.2177734,0.6259766,0.2177734,0.9746094
			c0,0.1293945-0.0454102,0.2456055-0.1318359,0.3354492c-0.0898438,0.0932617-0.2080078,0.1401367-0.3510742,0.1401367h-2.2768555
			C32.1795654,28.2692413,32.27771,28.4425812,32.4276123,28.5749054z M39.0579834,29.2228546
			c0,0.1323242-0.0498047,0.25-0.144043,0.3398438c-0.0913086,0.0883789-0.2084961,0.1357422-0.3388672,0.1357422
			c-0.1313477,0-0.2480469-0.0478516-0.3378906-0.1386719c-0.0898438-0.0888672-0.1376953-0.2055664-0.1376953-0.3369141v-1.9833984
			c0-0.5073242-0.1992188-0.7333984-0.6464844-0.7333984c-0.2128906,0-0.3979492,0.0537109-0.5649414,0.1640625
			c-0.1645508,0.1079102-0.3232422,0.2539063-0.472168,0.4345703v2.1181641c0,0.1318359-0.0498047,0.2490234-0.1435547,0.3393555
			c-0.184082,0.1787109-0.4985352,0.1782227-0.6772461-0.0024414c-0.090332-0.0898438-0.1376953-0.2060547-0.1376953-0.3369141
			v-3.1054688c0-0.1293945,0.046875-0.2470703,0.1362305-0.3393555c0.1796875-0.1870117,0.4951172-0.1884766,0.6806641-0.0019531
			c0.0795898,0.0800781,0.1269531,0.1777344,0.1386719,0.2861328c0.1191406-0.1020508,0.2441406-0.1899414,0.3725586-0.2631836
			c0.2348633-0.1333008,0.5131836-0.2006836,0.8271484-0.2006836c0.2929688,0,0.5527344,0.0712891,0.7719727,0.2124023
			c0.2182617,0.1396484,0.3876953,0.3330078,0.503418,0.574707c0.112793,0.2368164,0.1699219,0.5,0.1699219,0.7817383V29.2228546z
			 M43.4012451,29.2155304c0,0.1303711-0.0473633,0.2475586-0.1362305,0.3398438
			c-0.1806641,0.1865234-0.4916992,0.1894531-0.6801758,0.0019531c-0.0800781-0.0795898-0.1274414-0.1777344-0.1391602-0.2861328
			c-0.1196289,0.1020508-0.2441406,0.1904297-0.3725586,0.2631836c-0.234375,0.1328125-0.512207,0.2001953-0.8266602,0.2001953
			c-0.2939453,0-0.5537109-0.0712891-0.7724609-0.2119141c-0.21875-0.1401367-0.3881836-0.3339844-0.5029297-0.5756836
			c-0.1132813-0.2353516-0.1704102-0.4980469-0.1704102-0.7807617v-2.0561523c0-0.1308594,0.0493164-0.2480469,0.1430664-0.3393555
			c0.1904297-0.1816406,0.496582-0.1787109,0.6772461,0.0019531c0.090332,0.090332,0.1381836,0.2070313,0.1381836,0.3374023
			v1.9833984c0,0.5073242,0.1992188,0.7333984,0.6464844,0.7333984c0.2133789,0,0.3984375-0.0537109,0.5654297-0.1635742
			c0.1640625-0.1079102,0.3227539-0.2539063,0.4716797-0.4345703v-2.1186523c0-0.1308594,0.0493164-0.2480469,0.1430664-0.3393555
			c0.1904297-0.1816406,0.496582-0.1787109,0.6772461,0.0019531c0.090332,0.090332,0.1381836,0.2070313,0.1381836,0.3374023
			V29.2155304z" id="id_102" style="fill: rgb(101, 29, 173);"></path>
		<path d="M33.4368896,26.553421c-0.2749023-0.1293945-0.5649414-0.1293945-0.8427734,0
			c-0.1352539,0.0639648-0.2456055,0.1616211-0.3364258,0.2983398c-0.0668945,0.1005859-0.112793,0.2211914-0.1376953,0.3608398
			h1.7988281c-0.0253906-0.1391602-0.0722656-0.2597656-0.1401367-0.359375
			C33.6849365,26.7155304,33.5726318,26.6173859,33.4368896,26.553421z" id="id_103" style="fill: rgb(0, 255, 60);"></path>
		<path d="M54.8094482,9.325882c-0.3395996-0.0720215-0.699707-0.1130371-1.0598145-0.1130371H14.2606201
			c-0.3188477,0-0.6276855,0.0307617-0.9362793,0.0922852l-0.1955566,0.0310059
			c-2.3251953,0.5144043-4.064209,2.5927734-4.064209,5.0622559v46.4853516c0,2.8708496,2.3254395,5.185791,5.1960449,5.185791
			h39.4890137c2.8706055,0,5.185791-2.3149414,5.185791-5.185791V14.3983917
			C58.9354248,11.8981476,57.1759033,9.8095245,54.8094482,9.325882z M54.4954834,54.5092316c0,0.2763672-0.2236328,0.5-0.5,0.5
			c-3.2919922,0-5.9702148,2.6738281-5.9702148,5.9599609c0,0.2763672-0.2236328,0.5-0.5,0.5H20.4754639
			c-0.2763672,0-0.5-0.2236328-0.5-0.5c0-3.2861328-2.6782227-5.9599609-5.9702148-5.9599609c-0.2763672,0-0.5-0.2236328-0.5-0.5
			V20.7792511c0-0.2763672,0.2236328-0.5,0.5-0.5c3.2919922,0,5.9702148-2.6782227,5.9702148-5.9697266
			c0-0.2763672,0.2236328-0.5,0.5-0.5h27.0498047c0.2763672,0,0.5,0.2236328,0.5,0.5
			c0,3.2915039,2.6782227,5.9697266,5.9702148,5.9697266c0.2763672,0,0.5,0.2236328,0.5,0.5V54.5092316z" id="id_104" style="fill: rgb(81, 0, 212);"></path>
		<path d="M47.0428467,14.8095245H20.9578857c-0.2456055,3.4453125-3.0068359,6.206543-6.4526367,6.4521484v32.7651367
			c3.4453125,0.2451172,6.206543,3.0024414,6.4526367,6.4423828h26.0849609
			c0.2460938-3.4399414,3.0073242-6.1972656,6.4526367-6.4423828V21.261673
			C50.0496826,21.0160675,47.2884521,18.254837,47.0428467,14.8095245z M21.6253662,47.7021027c0-0.2763672,0.2236328-0.5,0.5-0.5
			h3.8930664c0.2763672,0,0.5,0.2236328,0.5,0.5s-0.2236328,0.5-0.5,0.5h-3.8930664
			C21.848999,48.2021027,21.6253662,47.9784698,21.6253662,47.7021027z M23.59021,51.5771027c0-0.2763672,0.2236328-0.5,0.5-0.5
			h11.8452148c0.2763672,0,0.5,0.2236328,0.5,0.5s-0.2236328,0.5-0.5,0.5H24.09021
			C23.8138428,52.0771027,23.59021,51.8534698,23.59021,51.5771027z M33.2996826,55.9521027h-5.0595703
			c-0.2763672,0-0.5-0.2236328-0.5-0.5s0.2236328-0.5,0.5-0.5h5.0595703c0.2763672,0,0.5,0.2236328,0.5,0.5
			S33.5760498,55.9521027,33.2996826,55.9521027z M39.7606201,55.9521027h-4.1586914c-0.2763672,0-0.5-0.2236328-0.5-0.5
			s0.2236328-0.5,0.5-0.5h4.1586914c0.2763672,0,0.5,0.2236328,0.5,0.5S40.0369873,55.9521027,39.7606201,55.9521027z
			 M43.9105225,52.0771027h-4.6420898c-0.2763672,0-0.5-0.2236328-0.5-0.5s0.2236328-0.5,0.5-0.5h4.6420898
			c0.2763672,0,0.5,0.2236328,0.5,0.5S44.1868896,52.0771027,43.9105225,52.0771027z M45.8753662,48.2021027H28.7684326
			c-0.2763672,0-0.5-0.2236328-0.5-0.5s0.2236328-0.5,0.5-0.5h17.1069336c0.2763672,0,0.5,0.2236328,0.5,0.5
			S46.1517334,48.2021027,45.8753662,48.2021027z M46.3753662,32.71138c0,1.0859375-0.8837891,1.9697266-1.9702148,1.9697266
			H23.5955811c-1.0864258,0-1.9702148-0.8837891-1.9702148-1.9697266V21.2968292
			c0-1.0859375,0.8837891-1.9697266,1.9702148-1.9697266h20.8095703c1.0864258,0,1.9702148,0.8837891,1.9702148,1.9697266V32.71138z
			" id="id_105" style="fill: rgb(37, 169, 196);"></path>
	</g>
</g>
</svg>